<svg xmlns:dc="http://purl.org/dc/elements/1.1/" xmlns:cc="http://creativecommons.org/ns#" xmlns:rdf="http://www.w3.org/1999/02/22-rdf-syntax-ns#" xmlns:svg="http://www.w3.org/2000/svg" xmlns="http://www.w3.org/2000/svg" viewBox="0 0 180 180"><metadata><rdf:RDF><cc:Work><dc:format>image/svg+xml</dc:format><dc:type rdf:resource="http://purl.org/dc/dcmitype/StillImage"/><dc:title>Bottts</dc:title><dc:creator><cc:Agent><dc:title>Pablo Stanley</dc:title></cc:Agent></dc:creator><dc:source>https://bottts.com/</dc:source><cc:license rdf:resource="https://bottts.com/"/><dc:contributor><cc:Agent><dc:title>Florian Körner</dc:title></cc:Agent></dc:contributor></cc:Work></rdf:RDF></metadata><mask id="avatarsRadiusMask"><rect width="180" height="180" rx="0" ry="0" x="0" y="0" fill="#fff"/></mask><g mask="url(#avatarsRadiusMask)"><g transform="translate(0, 66)"><path fill-rule="evenodd" clip-rule="evenodd" d="M12 39C12 50.9264 17.9543 61 28 61C38.0457 61 48 50.9264 48 39C48 26.0736 38.0457 16 28 16C17.9543 16 12 26.0736 12 39ZM168 39C168 50.9264 162.046 61 152 61C141.954 61 132 50.9264 132 39C132 26.0736 141.954 16 152 16C162.046 16 168 26.0736 168 39Z" fill="#E1E6E8"/><mask id="sidesRoundMask0" mask-type="alpha" maskUnits="userSpaceOnUse" x="12" y="16" width="156" height="45"><path fill-rule="evenodd" clip-rule="evenodd" d="M12 39C12 50.9264 17.9543 61 28 61C38.0457 61 48 50.9264 48 39C48 26.0736 38.0457 16 28 16C17.9543 16 12 26.0736 12 39ZM168 39C168 50.9264 162.046 61 152 61C141.954 61 132 50.9264 132 39C132 26.0736 141.954 16 152 16C162.046 16 168 26.0736 168 39Z" fill="white"/></mask><g mask="url(#sidesRoundMask0)"><rect width="180" height="76" fill="#8D6E63"/><rect x="20" width="140" height="76" fill="black" fill-opacity="0.2"/></g></g><g transform="translate(41, 0)"><path fill-rule="evenodd" clip-rule="evenodd" d="M52 5H48V36H40C38.8954 36 38 36.8954 38 38V52H62V38C62 36.8954 61.1046 36 60 36H52V5Z" fill="#E1E6E8"/><mask id="topAntennaMask0" mask-type="alpha" maskUnits="userSpaceOnUse" x="38" y="5" width="24" height="47"><path fill-rule="evenodd" clip-rule="evenodd" d="M52 5H48V36H40C38.8954 36 38 36.8954 38 38V52H62V38C62 36.8954 61.1046 36 60 36H52V5Z" fill="white"/></mask><g mask="url(#topAntennaMask0)"><rect width="100" height="52" fill="#8D6E63"/><rect x="38" y="36" width="24" height="16" fill="white" fill-opacity="0.2"/></g><path fill-rule="evenodd" clip-rule="evenodd" d="M50 16C54.4183 16 58 12.4183 58 8C58 3.58172 54.4183 0 50 0C45.5817 0 42 3.58172 42 8C42 12.4183 45.5817 16 50 16Z" fill="#FFE65C"/><path fill-rule="evenodd" clip-rule="evenodd" d="M53 8C54.6569 8 56 6.65685 56 5C56 3.34315 54.6569 2 53 2C51.3431 2 50 3.34315 50 5C50 6.65685 51.3431 8 53 8Z" fill="white"/></g><g transform="translate(25, 44)"><rect width="130" height="120" rx="18" fill="#0076DE"/><mask id="faceSquare01Mask0" mask-type="alpha" maskUnits="userSpaceOnUse" x="0" y="0" width="130" height="120"><rect width="130" height="120" rx="18" fill="white"/></mask><g mask="url(#faceSquare01Mask0)"><rect x="-2" y="-2" width="134" height="124" fill="#6D4C41"/> undefined </g></g><g transform="translate(52, 124)"><path fill-rule="evenodd" clip-rule="evenodd" d="M18 10.2222C18 21.7845 24.4741 28 38 28C51.5182 28 58 21.6615 58 10.2222C58 9.49622 57.1739 8 55 8C39.2707 8 29.1917 8 21 8C18.949 8 18 9.38479 18 10.2222Z" fill="black" fill-opacity="0.8"/><mask id="mouthSmilie02Mask0" mask-type="alpha" maskUnits="userSpaceOnUse" x="18" y="8" width="40" height="20"><path fill-rule="evenodd" clip-rule="evenodd" d="M18 10.2222C18 21.7845 24.4741 28 38 28C51.5182 28 58 21.6615 58 10.2222C58 9.49622 57.1739 8 55 8C39.2707 8 29.1917 8 21 8C18.949 8 18 9.38479 18 10.2222Z" fill="white"/></mask><g mask="url(#mouthSmilie02Mask0)"><rect x="30" y="2" width="16" height="14" rx="2" fill="white"/></g></g><g transform="translate(38, 76)"><rect x="8" y="10" width="88" height="36" rx="4" fill="black" fill-opacity="0.8"/><rect x="28" y="21" width="10" height="17" rx="2" fill="#5EF2B8"/><rect x="66" y="21" width="10" height="17" rx="2" fill="#5EF2B8"/><path fill-rule="evenodd" clip-rule="evenodd" d="M83 10H88L76 46H71L83 10Z" fill="white" fill-opacity="0.4"/></g></g></svg>